<svg id="Layer_1" data-name="Layer 1" xmlns="http://www.w3.org/2000/svg" viewBox="0 0 113.33 122.88"><defs><style>.cls-1{fill-rule:evenodd;}</style></defs><title>pharmacy</title><path class="cls-1" d="M6,107.54H56.44c0,1.36.05,1,0,2.34-.06,2.35-.59,4.19-1.74,5.37a8.73,8.73,0,0,1-5.3,1.73l-36.84-.13a6.66,6.66,0,0,1-4.81-1.61A6.29,6.29,0,0,1,6.1,111.5c0-.31-.13-4-.13-4ZM85.22,36a16.53,16.53,0,0,1,23.3,0h0a16.52,16.52,0,0,1,0,23.3C95.28,72.53,82.1,85.63,68.85,98.87h0a16.24,16.24,0,0,1-5.55,3.64v8.28h0c.19,4-.6,7.17-2.72,9.33s-5.43,3.14-10.25,2.63H11.07c-3.66.11-6.32-.8-8.15-2.58s-2.7-4.27-2.83-7.39a.78.78,0,0,1,0-.22V50.32C-.68,38.29,4.36,31.1,11.19,22c.68-.91,1.37-1.83,2.05-2.76h-2.4a6.79,6.79,0,0,1-6.77-6.77V6.77A6.79,6.79,0,0,1,10.84,0H53.23A6.79,6.79,0,0,1,60,6.77v5.65a6.79,6.79,0,0,1-6.77,6.77H50c.63.86,1.26,1.69,1.88,2.52C57.81,29.59,63.43,37.08,63.29,48V58Q74.22,47,85.22,36ZM63.3,97.71a12.43,12.43,0,0,0,3.88-2.62h0l16.59-16.6h0L66.11,60.83l-2.82,2.82V97.71ZM28.78,63.13h5.77a2,2,0,0,1,2,2v8.61h8.61a2,2,0,0,1,2,2v5.77a2,2,0,0,1-2,2H36.52V92a2,2,0,0,1-2,2H28.78a2,2,0,0,1-2-2V83.42H18.2a2,2,0,0,1-2-2V75.67a2,2,0,0,1,2-2h8.61V65.1a2,2,0,0,1,2-2ZM56.92,49.59H6.45a25.28,25.28,0,0,1,.12-4.8C7.51,36.6,11.9,30.71,16.88,24c1.09-1.46,2.21-3,3.37-4.6H43c1,1.42,2.13,2.89,3.22,4.35,5,6.59,9.67,12.88,10.56,21.08.08.81.14,4.73.14,4.73Z"/></svg>